<?xml version="1.0" encoding="UTF-8" standalone="no"?>
<svg
   width="600"
   zoomAndPan="magnify"
   viewBox="0 0 450 449.99999"
   height="600"
   preserveAspectRatio="xMidYMid meet"
   version="1.0"
   id="svg136"
   sodipodi:docname="315949ff623122869508aabcd20d62f0.svg"
   xmlns:inkscape="http://www.inkscape.org/namespaces/inkscape"
   xmlns:sodipodi="http://sodipodi.sourceforge.net/DTD/sodipodi-0.dtd"
   xmlns="http://www.w3.org/2000/svg"
   xmlns:svg="http://www.w3.org/2000/svg">
  <sodipodi:namedview
     id="namedview138"
     pagecolor="#ffffff"
     bordercolor="#666666"
     borderopacity="1.0"
     inkscape:pageshadow="2"
     inkscape:pageopacity="0.0"
     inkscape:pagecheckerboard="0" />
  <defs
     id="defs28">
    <g
       id="g2" />
    <clipPath
       id="e80862c07f">
      <path
         d="M 76.210938,134 H 171.46094 V 241 H 76.210938 Z m 0,0"
         clip-rule="nonzero"
         id="path4" />
    </clipPath>
    <clipPath
       id="6f9a7b5f6b">
      <path
         d="M 279.04687,180.26172 H 289 V 188 h -9.95313 z m 0,0"
         clip-rule="nonzero"
         id="path7" />
    </clipPath>
    <clipPath
       id="be54499c8e">
      <path
         d="M 279.04687,185 H 289 v 5 h -9.95313 z m 0,0"
         clip-rule="nonzero"
         id="path10" />
    </clipPath>
    <clipPath
       id="3f0476620d">
      <path
         d="M 279.04687,187 H 289 v 5 h -9.95313 z m 0,0"
         clip-rule="nonzero"
         id="path13" />
    </clipPath>
    <clipPath
       id="801493748e">
      <path
         d="m 289,180.26172 h 9.54687 V 187 H 289 Z m 0,0"
         clip-rule="nonzero"
         id="path16" />
    </clipPath>
    <clipPath
       id="14072478af">
      <path
         d="m 289,184 h 9.54687 v 5 H 289 Z m 0,0"
         clip-rule="nonzero"
         id="path19" />
    </clipPath>
    <clipPath
       id="01c9167140">
      <path
         d="m 289,186 h 9.54687 v 5 H 289 Z m 0,0"
         clip-rule="nonzero"
         id="path22" />
    </clipPath>
    <clipPath
       id="b900f86a7c">
      <path
         d="m 284,195 h 10 v 4.76172 h -10 z m 0,0"
         clip-rule="nonzero"
         id="path25" />
    </clipPath>
  </defs>
  <rect
     x="0"
     width="450"
     fill="#ffffff"
     y="0"
     height="450"
     fill-opacity="1"
     id="rect30" />
  <rect
     x="0"
     width="450"
     fill="#ffffff"
     y="0"
     height="450"
     fill-opacity="1"
     id="rect32" />
  <rect
     x="0"
     width="450"
     fill="#fafafa"
     y="0"
     height="450"
     fill-opacity="1"
     id="rect34" />
  <g
     clip-path="url(#e80862c07f)"
     id="g38"
     transform="translate(37.5,37.5)">
    <path
       fill="#9b91fe"
       d="m 171.35547,166.6875 v 41.77734 c 0,0.98828 -0.12891,1.96094 -0.38672,2.91797 -0.25391,0.95703 -0.62891,1.86328 -1.125,2.72266 -0.49219,0.85547 -1.08984,1.63672 -1.78516,2.33984 -0.69922,0.70313 -1.47656,1.30078 -2.33203,1.80078 L 129.52344,239.125 c -0.86328,0.49609 -1.77344,0.87109 -2.73438,1.12891 -0.96093,0.2539 -1.9414,0.38281 -2.93359,0.38281 -0.99609,0 -1.97266,-0.12891 -2.9375,-0.38281 -0.96094,-0.25782 -1.87109,-0.63282 -2.73438,-1.12891 L 82,218.24609 c -0.863281,-0.49218 -1.648438,-1.08984 -2.351562,-1.78906 -0.703126,-0.70312 -1.308594,-1.48047 -1.804688,-2.33984 -0.5,-0.85938 -0.878906,-1.76563 -1.136719,-2.72657 -0.261719,-0.95703 -0.390625,-1.93359 -0.390625,-2.92578 V 166.6875 c 0,-0.99219 0.128906,-1.96875 0.386719,-2.92969 0.261719,-0.95703 0.640625,-1.86719 1.136719,-2.72656 0.5,-0.85938 1.101562,-1.64063 1.808594,-2.33984 0.703124,-0.69922 1.488281,-1.29688 2.351562,-1.79297 l 36.19922,-20.89453 c 0.86328,-0.49219 1.77344,-0.86719 2.73437,-1.1211 0.96094,-0.2539 1.94141,-0.38281 2.9336,-0.38281 0.99609,0 1.97265,0.12891 2.93359,0.38281 0.96094,0.25391 1.87109,0.62891 2.73828,1.1211 l 36.20313,20.90625 c 0.85156,0.49609 1.6289,1.09765 2.32812,1.80078 0.69531,0.70312 1.28906,1.48047 1.78125,2.33984 0.49219,0.85938 0.86719,1.76563 1.1211,2.71875 0.25781,0.95703 0.38281,1.92969 0.38281,2.91797 z m 0,0"
       fill-opacity="1"
       fill-rule="nonzero"
       id="path36" />
  </g>
  <g
     fill="#ffffff"
     fill-opacity="1"
     id="g46"
     transform="translate(37.5,37.5)">
    <g
       transform="translate(88.740387,203.99999)"
       id="g44">
      <g
         id="g42">
        <path
           d="m 21.109375,0.546875 c -3.5625,0 -6.699219,-0.734375 -9.40625,-2.203125 -2.710937,-1.476562 -4.835937,-3.703125 -6.375,-6.671875 -1.53125,-2.96875 -2.296875,-6.628906 -2.296875,-10.984375 0,-4.34375 0.765625,-8 2.296875,-10.96875 1.539063,-2.96875 3.664063,-5.191406 6.375,-6.671875 2.707031,-1.476563 5.84375,-2.21875 9.40625,-2.21875 3.707031,0 6.859375,0.730469 9.453125,2.1875 2.601562,1.449219 4.460938,3.664063 5.578125,6.640625 l -5.578125,3.40625 -0.65625,-0.03125 c -0.835938,-2.007812 -1.960938,-3.445312 -3.375,-4.3125 -1.417969,-0.875 -3.226562,-1.3125 -5.421875,-1.3125 -3.210937,0 -5.714844,1.0625 -7.515625,3.1875 -1.792969,2.117188 -2.6875,5.480469 -2.6875,10.09375 0,4.59375 0.894531,7.953125 2.6875,10.078125 1.800781,2.125 4.304688,3.1875 7.515625,3.1875 5.007813,0 8.082031,-2.4375 9.21875,-7.3125 h 0.65625 l 5.625,2.921875 C 35.554688,-6.769531 33.75,-4.019531 31.1875,-2.1875 28.632812,-0.363281 25.273438,0.546875 21.109375,0.546875 Z m 0,0"
           id="path40" />
      </g>
    </g>
  </g>
  <g
     fill="#ffffff"
     fill-opacity="1"
     id="g54"
     transform="translate(37.5,37.5)">
    <g
       transform="translate(126.60837,203.99999)"
       id="g52">
      <g
         id="g50">
        <path
           d="m 16.9375,0.546875 c -2.855469,0 -5.359375,-0.5820312 -7.515625,-1.75 -2.15625,-1.164063 -3.835937,-2.878906 -5.03125,-5.140625 -1.1875,-2.269531 -1.78125,-5.003906 -1.78125,-8.203125 0,-3.207031 0.59375,-5.945313 1.78125,-8.21875 1.195313,-2.269531 2.875,-3.988281 5.03125,-5.15625 2.15625,-1.175781 4.660156,-1.765625 7.515625,-1.765625 2.84375,0 5.34375,0.589844 7.5,1.765625 2.164062,1.167969 3.84375,2.886719 5.03125,5.15625 1.195312,2.273437 1.796875,5.011719 1.796875,8.21875 0,3.199219 -0.601563,5.933594 -1.796875,8.203125 -1.1875,2.261719 -2.867188,3.976562 -5.03125,5.140625 -2.15625,1.1679688 -4.65625,1.75 -7.5,1.75 z m 0,-6.203125 c 4.519531,0 6.78125,-2.960938 6.78125,-8.890625 0,-3.082031 -0.585938,-5.34375 -1.75,-6.78125 -1.15625,-1.4375 -2.835938,-2.15625 -5.03125,-2.15625 -4.53125,0 -6.796875,2.980469 -6.796875,8.9375 0,5.929687 2.265625,8.890625 6.796875,8.890625 z m 0,0"
           id="path48" />
      </g>
    </g>
  </g>
  <g
     fill="#000000"
     fill-opacity="1"
     id="g62"
     transform="translate(37.5,37.5)">
    <g
       transform="translate(177.48464,199.43984)"
       id="g60">
      <g
         id="g58">
        <path
           d="M 7.8125,0.25 C 6.582031,0.25 5.492188,0.0976562 4.546875,-0.203125 3.597656,-0.503906 2.804688,-0.898438 2.171875,-1.390625 1.535156,-1.878906 1.046875,-2.414062 0.703125,-3 L 2.625,-5.34375 h 0.296875 c 0.53125,0.792969 1.203125,1.421875 2.015625,1.890625 0.820312,0.460937 1.78125,0.6875 2.875,0.6875 0.925781,0 1.625,-0.191406 2.09375,-0.578125 0.476562,-0.394531 0.71875,-0.9375 0.71875,-1.625 0,-0.425781 -0.07813,-0.773438 -0.234375,-1.046875 -0.148437,-0.28125 -0.398437,-0.519531 -0.75,-0.71875 -0.355469,-0.207031 -0.835937,-0.382813 -1.4375,-0.53125 L 5.9375,-7.78125 C 4.351562,-8.144531 3.171875,-8.742188 2.390625,-9.578125 c -0.773437,-0.84375 -1.15625,-1.9375 -1.15625,-3.28125 0,-0.988281 0.25,-1.859375 0.75,-2.609375 0.5,-0.757812 1.222656,-1.347656 2.171875,-1.765625 0.957031,-0.414063 2.097656,-0.625 3.421875,-0.625 1.351563,0 2.515625,0.179687 3.484375,0.53125 0.96875,0.355469 1.785156,0.902344 2.453125,1.640625 l -1.71875,2.359375 H 11.5 C 11,-13.847656 10.425781,-14.238281 9.78125,-14.5 c -0.648438,-0.257812 -1.382812,-0.390625 -2.203125,-0.390625 -0.960937,0 -1.6875,0.171875 -2.1875,0.515625 -0.492187,0.335938 -0.734375,0.796875 -0.734375,1.390625 0,0.554687 0.171875,0.996094 0.515625,1.328125 0.351563,0.324219 0.957031,0.578125 1.8125,0.765625 l 2.3125,0.484375 c 1.707031,0.367188 2.945313,0.980469 3.71875,1.84375 0.769531,0.855469 1.15625,1.980469 1.15625,3.375 0,1.09375 -0.242187,2.054688 -0.71875,2.875 C 12.984375,-1.5 12.269531,-0.867188 11.3125,-0.421875 10.363281,0.0234375 9.195312,0.25 7.8125,0.25 Z m 0,0"
           id="path56" />
      </g>
    </g>
  </g>
  <g
     fill="#000000"
     fill-opacity="1"
     id="g70"
     transform="translate(37.5,37.5)">
    <g
       transform="translate(192.60808,199.43984)"
       id="g68">
      <g
         id="g66">
        <path
           d="M 14.125,-17.609375 V -14.6875 H 9.03125 V 0 H 5.5625 V -14.6875 H 0.484375 v -2.921875 z m 0,0"
           id="path64" />
      </g>
    </g>
  </g>
  <g
     fill="#000000"
     fill-opacity="1"
     id="g78"
     transform="translate(37.5,37.5)">
    <g
       transform="translate(207.20171,199.43984)"
       id="g76">
      <g
         id="g74">
        <path
           d="m 16.90625,0 h -3.671875 l -1.3125,-4.0625 h -6.75 L 3.84375,0 H 0.265625 L 6.34375,-17.609375 H 10.8125 Z M 8.375,-13.9375 6.109375,-6.984375 h 4.84375 L 8.671875,-13.9375 Z m 0,0"
           id="path72" />
      </g>
    </g>
  </g>
  <g
     fill="#000000"
     fill-opacity="1"
     id="g86"
     transform="translate(37.5,37.5)">
    <g
       transform="translate(224.36007,199.43984)"
       id="g84">
      <g
         id="g82">
        <path
           d="M 9.625,0.25 C 8,0.25 6.566406,-0.0820312 5.328125,-0.75 4.097656,-1.425781 3.132812,-2.441406 2.4375,-3.796875 1.738281,-5.148438 1.390625,-6.820312 1.390625,-8.8125 c 0,-1.976562 0.347656,-3.644531 1.046875,-5 0.695312,-1.351562 1.660156,-2.363281 2.890625,-3.03125 C 6.566406,-17.519531 8,-17.859375 9.625,-17.859375 c 1.695312,0 3.132812,0.335937 4.3125,1 1.1875,0.65625 2.035156,1.664063 2.546875,3.015625 l -2.546875,1.5625 -0.296875,-0.01563 c -0.375,-0.914063 -0.890625,-1.570313 -1.546875,-1.96875 -0.648438,-0.394531 -1.46875,-0.59375 -2.46875,-0.59375 -1.460938,0 -2.601562,0.484375 -3.421875,1.453125 -0.824219,0.960938 -1.234375,2.492188 -1.234375,4.59375 0,2.105469 0.410156,3.640625 1.234375,4.609375 0.820313,0.960937 1.960937,1.4375 3.421875,1.4375 2.289062,0 3.691406,-1.109375 4.203125,-3.328125 H 14.125 l 2.578125,1.328125 C 16.210938,-3.085938 15.382812,-1.832031 14.21875,-1 13.0625,-0.164062 11.53125,0.25 9.625,0.25 Z m 0,0"
           id="path80" />
      </g>
    </g>
  </g>
  <g
     fill="#000000"
     fill-opacity="1"
     id="g94"
     transform="translate(37.5,37.5)">
    <g
       transform="translate(241.6268,199.43984)"
       id="g92">
      <g
         id="g90">
        <path
           d="m 2.28125,0 v -17.609375 h 3.484375 v 7.1875 H 6.15625 l 5.875,-7.1875 h 3.5625 v 0.296875 l -6.46875,8.015625 7.15625,9 V 0 h -3.9375 L 6.15625,-7.59375 H 5.765625 V 0 Z m 0,0"
           id="path88" />
      </g>
    </g>
  </g>
  <g
     fill="#000000"
     fill-opacity="1"
     id="g102"
     transform="translate(37.5,37.5)">
    <g
       transform="translate(257.89413,199.43984)"
       id="g100">
      <g
         id="g98">
        <path
           d="M 7.8125,0.25 C 6.582031,0.25 5.492188,0.0976562 4.546875,-0.203125 3.597656,-0.503906 2.804688,-0.898438 2.171875,-1.390625 1.535156,-1.878906 1.046875,-2.414062 0.703125,-3 L 2.625,-5.34375 h 0.296875 c 0.53125,0.792969 1.203125,1.421875 2.015625,1.890625 0.820312,0.460937 1.78125,0.6875 2.875,0.6875 0.925781,0 1.625,-0.191406 2.09375,-0.578125 0.476562,-0.394531 0.71875,-0.9375 0.71875,-1.625 0,-0.425781 -0.07813,-0.773438 -0.234375,-1.046875 -0.148437,-0.28125 -0.398437,-0.519531 -0.75,-0.71875 -0.355469,-0.207031 -0.835937,-0.382813 -1.4375,-0.53125 L 5.9375,-7.78125 C 4.351562,-8.144531 3.171875,-8.742188 2.390625,-9.578125 c -0.773437,-0.84375 -1.15625,-1.9375 -1.15625,-3.28125 0,-0.988281 0.25,-1.859375 0.75,-2.609375 0.5,-0.757812 1.222656,-1.347656 2.171875,-1.765625 0.957031,-0.414063 2.097656,-0.625 3.421875,-0.625 1.351563,0 2.515625,0.179687 3.484375,0.53125 0.96875,0.355469 1.785156,0.902344 2.453125,1.640625 l -1.71875,2.359375 H 11.5 C 11,-13.847656 10.425781,-14.238281 9.78125,-14.5 c -0.648438,-0.257812 -1.382812,-0.390625 -2.203125,-0.390625 -0.960937,0 -1.6875,0.171875 -2.1875,0.515625 -0.492187,0.335938 -0.734375,0.796875 -0.734375,1.390625 0,0.554687 0.171875,0.996094 0.515625,1.328125 0.351563,0.324219 0.957031,0.578125 1.8125,0.765625 l 2.3125,0.484375 c 1.707031,0.367188 2.945313,0.980469 3.71875,1.84375 0.769531,0.855469 1.15625,1.980469 1.15625,3.375 0,1.09375 -0.242187,2.054688 -0.71875,2.875 C 12.984375,-1.5 12.269531,-0.867188 11.3125,-0.421875 10.363281,0.0234375 9.195312,0.25 7.8125,0.25 Z m 0,0"
           id="path96" />
      </g>
    </g>
  </g>
  <g
     clip-path="url(#6f9a7b5f6b)"
     id="g106"
     transform="translate(37.5,37.5)">
    <path
       fill="#d06cff"
       d="m 288.58203,183.71484 v -0.0195 c -0.004,-0.12109 -0.0391,-0.22656 -0.10156,-0.32812 -0.0508,-0.0742 -0.11328,-0.13282 -0.19141,-0.17969 l -4.1289,-2.72266 c -0.10157,-0.0664 -0.21485,-0.10156 -0.33594,-0.10156 h -0.0274 c -0.12109,0.004 -0.23046,0.0391 -0.33203,0.10156 l -4.13281,2.72266 c -0.0742,0.0469 -0.13672,0.10547 -0.1875,0.17969 -0.0664,0.10156 -0.0977,0.20703 -0.0977,0.32812 v 0.0391 c 0,0.11719 0.0312,0.22266 0.0977,0.32032 0.0508,0.0742 0.11328,0.13672 0.1875,0.1875 l 4.13281,2.71484 c 0.0977,0.0664 0.21094,0.10156 0.33203,0.10547 h 0.0274 c 0.125,-0.004 0.23437,-0.0352 0.33594,-0.10547 l 4.1289,-2.71484 c 0.0781,-0.0508 0.14063,-0.11328 0.19141,-0.1875 0.0625,-0.0977 0.0976,-0.20313 0.10156,-0.32032 z m -4.76953,1.97657 -3.00391,-1.97657 3.00391,-1.98047 3.00781,1.98047 z m 0,0"
       fill-opacity="1"
       fill-rule="nonzero"
       id="path104" />
  </g>
  <g
     clip-path="url(#be54499c8e)"
     id="g110"
     transform="translate(37.5,37.5)">
    <path
       fill="#d06cff"
       d="m 288.48047,185.35156 c -0.0977,-0.14062 -0.23047,-0.23047 -0.40235,-0.26172 -0.16796,-0.0352 -0.32421,-0.004 -0.46875,0.0898 l -3.79687,2.5 -3.79688,-2.5 c -0.14453,-0.10547 -0.30468,-0.14453 -0.48437,-0.11328 -0.17578,0.0312 -0.31641,0.12109 -0.41406,0.26953 -0.0977,0.15234 -0.12891,0.3125 -0.0859,0.48828 0.0391,0.17187 0.13672,0.30469 0.29297,0.39453 l 4.14062,2.73047 c 0.10157,0.0625 0.21094,0.0937 0.33203,0.0977 h 0.0274 c 0.12109,0 0.23437,-0.0352 0.33594,-0.0977 l 4.13671,-2.73047 c 0.14844,-0.0937 0.23829,-0.22656 0.27344,-0.39453 0.0352,-0.16797 0.004,-0.32813 -0.0898,-0.47266 z m 0,0"
       fill-opacity="1"
       fill-rule="nonzero"
       id="path108" />
  </g>
  <g
     clip-path="url(#3f0476620d)"
     id="g114"
     transform="translate(37.5,37.5)">
    <path
       fill="#d06cff"
       d="m 288.48047,187.33984 c -0.0977,-0.14453 -0.23047,-0.23047 -0.40235,-0.26562 -0.16796,-0.0352 -0.32421,-0.004 -0.46875,0.0898 l -3.79687,2.5 -3.79688,-2.5 c -0.14453,-0.10547 -0.30468,-0.14453 -0.48437,-0.11328 -0.17578,0.0312 -0.31641,0.12109 -0.41406,0.26953 -0.0977,0.15235 -0.12891,0.3125 -0.0859,0.48828 0.0391,0.17578 0.13672,0.3086 0.29297,0.39844 l 4.14062,2.72656 c 0.10157,0.0625 0.21094,0.0977 0.33203,0.0977 h 0.0274 c 0.12109,0 0.23437,-0.0352 0.33594,-0.0977 l 4.13671,-2.72656 c 0.14844,-0.0937 0.23829,-0.22656 0.27344,-0.39844 0.0352,-0.16797 0.004,-0.32422 -0.0898,-0.46875 z m 0,0"
       fill-opacity="1"
       fill-rule="nonzero"
       id="path112" />
  </g>
  <g
     clip-path="url(#801493748e)"
     id="g118"
     transform="translate(37.5,37.5)">
    <path
       fill="#00ffd1"
       d="m 298.54687,183.61719 v -0.0195 c -0.004,-0.1211 -0.0391,-0.23047 -0.10546,-0.32813 -0.0469,-0.0742 -0.10938,-0.13672 -0.1875,-0.17969 l -4.13282,-2.72265 c -0.10156,-0.0664 -0.21093,-0.10157 -0.33203,-0.10157 h -0.0273 c -0.1211,0.004 -0.23438,0.0391 -0.33594,0.10157 l -4.125,2.72265 c -0.0781,0.043 -0.14062,0.10547 -0.1875,0.17969 -0.0703,0.0977 -0.10547,0.20703 -0.10547,0.32813 v 0.0391 c 0,0.11719 0.0352,0.22656 0.10547,0.32031 0.0469,0.0781 0.10938,0.14063 0.1875,0.1875 l 4.125,2.71484 c 0.10156,0.0664 0.21094,0.10157 0.33594,0.10547 h 0.0312 c 0.12109,0 0.23047,-0.0352 0.32812,-0.10547 l 4.13282,-2.71484 c 0.18359,-0.12109 0.28125,-0.28906 0.29296,-0.50781 z m -4.77343,1.98047 -3.00391,-1.98047 3.00391,-1.97657 3.01172,1.97657 z m 0,0"
       fill-opacity="1"
       fill-rule="nonzero"
       id="path116" />
  </g>
  <g
     clip-path="url(#14072478af)"
     id="g122"
     transform="translate(37.5,37.5)">
    <path
       fill="#00ffd1"
       d="m 298.44141,185.25391 c -0.0977,-0.14063 -0.23047,-0.23047 -0.39844,-0.26563 -0.17188,-0.0352 -0.32813,-0.004 -0.47266,0.0937 l -3.79687,2.5 -3.79688,-2.5 c -0.14453,-0.0977 -0.30078,-0.125 -0.46875,-0.0937 -0.16797,0.0352 -0.30078,0.125 -0.39453,0.26563 -0.0977,0.14453 -0.12891,0.30078 -0.0937,0.47265 0.0352,0.16797 0.125,0.30078 0.26953,0.39844 l 4.13672,2.71875 c 0.10156,0.0703 0.21094,0.10547 0.33594,0.10547 h 0.0312 c 0.12109,0 0.23047,-0.0352 0.32812,-0.10547 l 4.14453,-2.71875 c 0.14454,-0.0977 0.23438,-0.23047 0.26563,-0.39844 0.0352,-0.17187 0.004,-0.32812 -0.0898,-0.47265 z m 0,0"
       fill-opacity="1"
       fill-rule="nonzero"
       id="path120" />
  </g>
  <g
     clip-path="url(#01c9167140)"
     id="g126"
     transform="translate(37.5,37.5)">
    <path
       fill="#00ffd1"
       d="m 298.44141,187.24219 c -0.0977,-0.14453 -0.23047,-0.23047 -0.39844,-0.26563 -0.17188,-0.0352 -0.32813,-0.004 -0.47266,0.0898 l -3.79687,2.5 -3.79688,-2.5 c -0.14453,-0.082 -0.29687,-0.10547 -0.45703,-0.0664 -0.16406,0.0352 -0.28906,0.125 -0.38281,0.26172 -0.0899,0.14062 -0.1211,0.28906 -0.0937,0.45312 0.0312,0.16407 0.10937,0.29688 0.24609,0.39453 l 4.13672,2.72657 c 0.10156,0.0625 0.21484,0.0977 0.33594,0.0977 h 0.0312 c 0.12109,0 0.23047,-0.0312 0.32812,-0.0977 l 4.14453,-2.72657 c 0.14454,-0.0977 0.23438,-0.23046 0.26563,-0.39843 0.0352,-0.16797 0.004,-0.32422 -0.0898,-0.46875 z m 0,0"
       fill-opacity="1"
       fill-rule="nonzero"
       id="path124" />
  </g>
  <path
     fill="#00d1ff"
     d="m 331.13281,229.94141 v -0.0273 c 0,-0.11719 -0.0312,-0.22265 -0.0976,-0.32031 -0.0469,-0.0742 -0.11329,-0.13281 -0.1875,-0.17969 l -4.12891,-2.72265 c -0.10156,-0.0625 -0.21484,-0.0977 -0.33594,-0.10547 h -0.0273 c -0.1211,0.004 -0.23438,0.0391 -0.33594,0.10547 l -4.12891,2.72265 c -0.0781,0.043 -0.14062,0.10547 -0.1875,0.17969 -0.0625,0.0977 -0.0976,0.20312 -0.10546,0.32031 v 0.0469 c 0.008,0.11718 0.043,0.22265 0.10546,0.32031 0.0469,0.0742 0.11329,0.13672 0.1875,0.1875 l 4.12891,2.71484 c 0.10156,0.0664 0.21484,0.10157 0.33594,0.10157 h 0.0273 c 0.1211,0 0.23438,-0.0352 0.33594,-0.10157 l 4.12891,-2.71484 c 0.0742,-0.0508 0.13671,-0.11328 0.1875,-0.1875 0.0664,-0.0977 0.0976,-0.20313 0.0976,-0.32031 z m -4.76172,1.97656 -3.01172,-1.97656 3.01172,-1.98047 3,1.98047 z m 0,0"
     fill-opacity="1"
     fill-rule="nonzero"
     id="path128" />
  <path
     fill="#00d1ff"
     d="m 331.03516,231.57812 c -0.0937,-0.14453 -0.22657,-0.23046 -0.39844,-0.26562 -0.16797,-0.0352 -0.32813,-0.004 -0.46875,0.0937 l -3.79688,2.5 -3.79687,-2.5 c -0.14453,-0.10938 -0.3086,-0.14453 -0.48438,-0.11328 -0.17578,0.0312 -0.3164,0.12109 -0.41406,0.26953 -0.10156,0.14844 -0.12891,0.3125 -0.0859,0.48828 0.0391,0.17188 0.13672,0.30469 0.29297,0.39453 l 4.13672,2.72266 c 0.10156,0.0703 0.21484,0.10547 0.33594,0.10547 h 0.0273 c 0.1211,-0.004 0.23438,-0.0391 0.33594,-0.10547 l 4.13672,-2.72266 c 0.14453,-0.0937 0.23437,-0.22656 0.26953,-0.39453 0.0352,-0.16797 0.004,-0.32812 -0.0898,-0.47266 z m 0,0"
     fill-opacity="1"
     fill-rule="nonzero"
     id="path130" />
  <g
     clip-path="url(#b900f86a7c)"
     id="g134"
     transform="translate(37.5,37.5)">
    <path
       fill="#00d1ff"
       d="m 293.53516,196.0625 c -0.0937,-0.14063 -0.22657,-0.23047 -0.39844,-0.26563 -0.16797,-0.0352 -0.32813,-0.004 -0.46875,0.0937 l -3.79688,2.5 -3.79687,-2.5 c -0.14453,-0.10546 -0.3086,-0.14453 -0.48438,-0.11328 -0.17578,0.0312 -0.3164,0.1211 -0.41406,0.26953 -0.10156,0.15235 -0.12891,0.3125 -0.0859,0.48829 0.0391,0.17578 0.13672,0.30859 0.29297,0.39843 l 4.13672,2.71875 c 0.10156,0.0703 0.21484,0.10547 0.33594,0.10547 h 0.0273 c 0.1211,0 0.23438,-0.0352 0.33594,-0.10547 l 4.13672,-2.71875 c 0.14453,-0.0977 0.23437,-0.23047 0.26953,-0.39843 0.0352,-0.16797 0.004,-0.32422 -0.0898,-0.47266 z m 0,0"
       fill-opacity="1"
       fill-rule="nonzero"
       id="path132" />
  </g>
</svg>
